<?xml version="1.0" encoding="utf-8"?>
<!-- Generator: Adobe Illustrator 19.1.0, SVG Export Plug-In . SVG Version: 6.00 Build 0)  -->
<svg version="1.1" id="Ebene_1" xmlns="http://www.w3.org/2000/svg" xmlns:xlink="http://www.w3.org/1999/xlink" x="0px" y="0px"
	 viewBox="0 0 489.9 205" style="enable-background:new 0 0 489.9 205;" xml:space="preserve">
<style type="text/css">
	.st0{fill:#474648;}
	.st1{fill:#1E71B8;}
	.st2{fill:#464646;}
</style>
<path class="st0" d="M211.2,191.7c-0.3,1.1-0.9,2.1-1.6,3c-0.7,0.8-1.4,1.5-2.2,1.9c-0.8,0.4-1.7,0.7-2.5,0.9
	c-0.9,0.2-1.8,0.3-2.8,0.3s-1.9,0-2.9,0h-16.3V192h14.8c0.7,0,1.4,0,2.2-0.1c0.8,0,1.5-0.2,2.1-0.4c0.6-0.2,1.2-0.6,1.6-1.1
	s0.6-1.2,0.6-2.2c0-1.1-0.4-2-1.2-2.8c-0.6-0.6-1.2-0.9-2.1-1.1c-0.8-0.1-1.6-0.2-2.4-0.2h-6c-0.9,0-2-0.1-3.1-0.2
	c-1.1-0.1-2.1-0.3-3-0.7c-0.8-0.3-1.6-0.8-2.2-1.4c-0.6-0.6-1.2-1.3-1.6-2c-0.4-0.7-0.7-1.5-1-2.4c-0.2-0.9-0.3-1.7-0.3-2.6
	c0-1.3,0.3-2.7,0.8-4.1c0.6-1.4,1.3-2.5,2.3-3.4c0.6-0.6,1.4-1,2.1-1.3c0.8-0.3,1.5-0.5,2.4-0.6c0.8-0.1,1.6-0.2,2.5-0.2
	c0.8,0,1.7,0,2.5,0h16v5.8h-14.5c-0.7,0-1.5,0-2.3,0c-0.7,0-1.4,0.1-2.1,0.3c-0.6,0.2-1.2,0.6-1.6,1.1c-0.4,0.5-0.6,1.3-0.6,2.3
	c0,0.9,0.2,1.6,0.6,2.1s0.8,0.9,1.4,1.1c0.6,0.2,1.2,0.4,1.9,0.4c0.7,0,1.4,0.1,2,0.1h5.2c1.3,0,2.5,0.1,3.7,0.2
	c1.2,0.1,2.4,0.5,3.6,1c0.8,0.4,1.5,0.9,2,1.5s1,1.3,1.4,2.1s0.6,1.6,0.8,2.4c0.2,0.8,0.2,1.7,0.2,2.5
	C211.7,189.4,211.5,190.5,211.2,191.7L211.2,191.7z M245.6,197.8v-24.4l-8.5,24.4H230l-8-24.4v24.4h-6.5v-32.4h10l8.1,25.3l8.4-25.3
	h10.1v32.4H245.6L245.6,197.8z M281.5,197.8l-3.1-7.5H266l-3.1,7.5h-8.1l13.4-32.4h7.9l13.4,32.4H281.5L281.5,197.8z M272.2,173.3
	l-4.6,11.4h9.2L272.2,173.3L272.2,173.3z M315,183.9c0.7,0.3,1.3,0.5,1.8,0.8c0.5,0.2,1,0.5,1.3,0.9c0.4,0.3,0.7,0.7,1,1.2
	s0.6,1.1,0.9,1.8c0.5,1.1,0.7,2.2,0.8,3.3c0,1.1,0.1,2.3,0.3,3.4c0.1,0.8,0.3,1.7,0.6,2.6H314c-0.3-0.7-0.4-1.5-0.5-2.3
	s-0.1-1.6-0.2-2.3c-0.2-1.5-0.4-2.7-0.8-3.7s-0.9-1.8-1.6-2.4s-1.5-1-2.6-1.2c-1-0.2-2.3-0.4-3.8-0.4h-5.6v12.3H292v-32.5h15.9
	c1.2,0,2.4,0,3.7,0.1c1.3,0.1,2.4,0.3,3.6,0.6c1.9,0.6,3.4,1.6,4.5,3.1s1.6,3.3,1.6,5.2c0,2.2-0.5,4.2-1.4,5.9
	C318.8,181.9,317.2,183.1,315,183.9L315,183.9z M313.1,173.2c-0.3-0.5-0.6-0.9-1-1.2s-1-0.5-1.6-0.6s-1.3-0.2-2-0.2h-9.7v8.6h9.7
	c1.6,0,2.8-0.3,3.7-0.9c0.9-0.6,1.3-1.8,1.3-3.5C313.5,174.4,313.4,173.7,313.1,173.2L313.1,173.2z M340,171.2v26.6h-6.9v-26.6
	h-10.4v-5.8h28v5.8H340L340,171.2z M372.8,197.8v-13.4h-12.5v13.4h-6.9v-32.4h6.9v13.4h12.5v-13.4h6.9v32.4H372.8L372.8,197.8z"/>
<path class="st1" d="M190.7,153.8c0.8,0.6,1.8,0.9,2.9,1.1c1.1,0.2,2.4,0.3,3.9,0.3h8.7v5.8h-9c-1.4,0-3-0.1-4.6-0.2
	c-1.6-0.1-3.1-0.4-4.5-0.9c-1.5-0.6-2.8-1.4-3.8-2.5s-1.8-2.4-2.5-3.8c-0.6-1.4-1.1-2.9-1.3-4.5c-0.3-1.6-0.4-3.1-0.4-4.5
	s0.1-2.8,0.4-4.2s0.7-2.7,1.2-4c0.6-1.2,1.3-2.4,2.2-3.5s2-2,3.2-2.8c1.1-0.7,2.3-1.1,3.6-1.3c1.3-0.2,2.6-0.3,3.8-0.3h11.7v5.8h-9
	c-0.7,0-1.7,0-2.7,0.1c-1.1,0.1-2,0.2-2.7,0.5c-0.9,0.4-1.7,1-2.3,1.8s-0.9,1.6-1.1,2.5c-0.1,0.9-0.3,1.9-0.4,2.8h18.2v5.6H188
	c0.1,1.6,0.4,2.8,0.9,3.8C189.2,152.5,189.9,153.3,190.7,153.8L190.7,153.8z M234.8,161l-3.1-7.5h-12.4l-3.1,7.5h-8.1l13.4-32.4h7.9
	l13.4,32.4H234.8L234.8,161z M225.5,136.5l-4.6,11.4h9.2L225.5,136.5L225.5,136.5z M273.7,154.9c-0.3,1.1-0.9,2.1-1.6,3
	c-0.7,0.8-1.4,1.5-2.2,1.9c-0.8,0.4-1.7,0.7-2.5,0.9c-0.9,0.2-1.8,0.3-2.8,0.3s-1.9,0-2.9,0h-16.3v-5.8h14.8c0.7,0,1.4,0,2.2-0.1
	c0.8,0,1.5-0.2,2.1-0.4s1.2-0.6,1.6-1.1s0.6-1.2,0.6-2.2c0-1.1-0.4-2-1.2-2.8c-0.6-0.6-1.2-0.9-2.1-1.1c-0.8-0.1-1.6-0.2-2.4-0.2h-6
	c-0.9,0-2-0.1-3.1-0.2c-1.1-0.1-2.1-0.3-3-0.7c-0.8-0.3-1.6-0.8-2.2-1.4c-0.6-0.6-1.2-1.3-1.6-2s-0.7-1.5-1-2.4
	c-0.2-0.9-0.3-1.7-0.3-2.6c0-1.3,0.3-2.7,0.8-4.1c0.6-1.4,1.3-2.5,2.3-3.4c0.6-0.6,1.4-1,2.1-1.3c0.8-0.3,1.5-0.5,2.4-0.6
	c0.8-0.1,1.6-0.2,2.5-0.2c0.8,0,1.7,0,2.5,0h16v5.8h-14.5c-0.7,0-1.5,0-2.3,0c-0.7,0-1.4,0.1-2.1,0.3c-0.6,0.2-1.2,0.6-1.6,1.1
	s-0.6,1.3-0.6,2.3c0,0.9,0.2,1.6,0.6,2.1s0.8,0.9,1.4,1.1c0.6,0.2,1.2,0.4,1.9,0.4c0.7,0,1.4,0.1,2,0.1h5.2c1.3,0,2.5,0.1,3.7,0.2
	c1.2,0.1,2.4,0.5,3.6,1c0.8,0.4,1.5,0.9,2,1.5c0.6,0.6,1,1.3,1.4,2.1s0.6,1.6,0.8,2.4c0.2,0.8,0.2,1.7,0.2,2.5
	C274.2,152.6,274,153.7,273.7,154.9L273.7,154.9z M293.6,147.1v14h-6.9v-14.2l-12-18.2h8.1l7.4,12.7l7.8-12.7h8.2L293.6,147.1
	L293.6,147.1z"/>
<path class="st2" d="M453.2,197.8v-24.4l-8.5,24.4h-7.1l-8-24.4v24.4h-6.5v-32.4h10.1l8,25.3l8.4-25.3h10.1v32.4H453.2L453.2,197.8z
	 M474.4,190.6c0.8,0.6,1.8,0.9,2.9,1.1c1.1,0.2,2.4,0.3,3.9,0.3h8.7v5.8h-9c-1.4,0-3-0.1-4.6-0.2s-3.1-0.4-4.5-0.9
	c-1.5-0.6-2.8-1.4-3.8-2.5s-1.8-2.4-2.5-3.8c-0.6-1.4-1.1-2.9-1.3-4.5c-0.3-1.6-0.4-3.1-0.4-4.5s0.1-2.8,0.4-4.2
	c0.3-1.4,0.7-2.7,1.2-4c0.6-1.2,1.3-2.4,2.2-3.5s2-2,3.2-2.8c1.1-0.7,2.3-1.1,3.6-1.3s2.6-0.3,3.8-0.3h11.7v5.8h-9
	c-0.7,0-1.7,0-2.7,0.1c-1.1,0.1-2,0.2-2.7,0.5c-0.9,0.4-1.7,1-2.3,1.8s-0.9,1.6-1.1,2.5c-0.1,0.9-0.3,1.9-0.4,2.8h18.2v5.6h-18.2
	c0.1,1.6,0.4,2.8,0.9,3.8C473,189.3,473.6,190.1,474.4,190.6L474.4,190.6z"/>
<path class="st1" d="M400.9,175.7c1.9-0.5,3.8,0.7,4.3,2.5c0.5,1.9-0.7,3.8-2.5,4.3c-1.9,0.5-3.8-0.7-4.3-2.5
	C397.9,178.1,399,176.2,400.9,175.7L400.9,175.7z"/>
<path class="st1" d="M407,177.8L407,177.8c-0.8-3.2-4-5-7.1-4.2l0,0l-0.5-1.9l0,0c4.1-1.1,8.3,1.4,9.4,5.6c0,0,0,0,0,0.1L407,177.8
	L407,177.8z"/>
<path class="st1" d="M410.4,177c0-0.1,0-0.1,0-0.2c-1.3-4.9-6.3-7.9-11.2-6.6l0,0l-0.8-3l0,0c6.6-1.7,13.2,2.3,14.9,8.8
	c0,0.1,0,0.1,0,0.2L410.4,177L410.4,177z"/>
<path class="st1" d="M414.7,175.7c-1.9-7.4-9.4-11.8-16.7-9.9c0,0,0,0-0.1,0l-1.1-4.4c0,0,0,0,0.1,0c9.8-2.5,19.8,3.4,22.3,13.2
	c0,0.1,0,0.1,0,0.2l-4.4,1.1C414.8,175.8,414.8,175.8,414.7,175.7L414.7,175.7z"/>
<path class="st1" d="M388.1,182.5c1.9,7.4,9.4,11.8,16.7,9.9c6.8-1.7,11.1-8.3,10.2-15l4.5-1.1c1.5,9.2-4.3,18.3-13.5,20.6
	c-9.8,2.5-19.8-3.4-22.3-13.2c-2.4-9.3,2.8-18.7,11.6-21.8l1.1,4.5C390.1,168.8,386.4,175.7,388.1,182.5L388.1,182.5z"/>
<path class="st1" d="M173.7,116.4V205H32.3v-88.5h-29l104.1-82.9l95.4,82.9L173.7,116.4z M106.3,48.2l-74,59.1h12.5v86.1h115.9
	v-86.1h13.8L106.3,48.2L106.3,48.2z"/>
<path class="st1" d="M52.6,78.2l-5-6.4L75,50.2l5,6.4L52.6,78.2L52.6,78.2z M39.8,58.8l2.1-1.7c2.5,4,5.3,6.3,5.3,6.3
	s-2.4-3.2-3.8-5.8c-0.2-0.4-0.4-0.8-0.6-1.2l8.9-7.1l-8.9,7.1c-0.8-1.8-0.9-3.2-0.9-3.2s2-0.7,1.2-5.1c-0.3-2-2.5-3.7-2.5-3.7
	s-0.6-1.7-0.5-3.3c0-2,0.7-4,0.7-4s-3.3,5.9-1.9,12.5c0.6,2.9,1.8,5.5,3.1,7.6L39.8,58.8c-6-8.4-5.8-18.9,0.6-24s16.7-2.8,23.4,5
	l0,0l7.6,9.6l-24.1,19L39.8,58.8L39.8,58.8z"/>
<path class="st1" d="M84.1,19.1c0.2-0.4,0.2-0.8,0-1.2c-0.1-0.4-0.4-0.7-0.8-0.9c-0.4-0.2-0.8-0.2-1.2,0s-0.7,0.4-0.9,0.8l-8.5,18.6
	c-0.2,0.4-0.2,0.8,0,1.2c0.1,0.4,0.4,0.7,0.8,0.9c0.4,0.2,0.8,0.2,1.2,0c0.4-0.2,0.7-0.4,0.9-0.8L84.1,19.1L84.1,19.1z"/>
<path class="st1" d="M68.4,10.4c0.1-0.4,0-0.8-0.3-1.2c-0.3-0.3-0.6-0.5-1-0.6s-0.8,0-1.2,0.3c-0.3,0.3-0.5,0.6-0.6,1l-2.7,20.2
	c-0.1,0.4,0,0.8,0.3,1.2c0.3,0.3,0.6,0.5,1,0.6s0.8,0,1.2-0.3c0.3-0.3,0.5-0.6,0.6-1L68.4,10.4L68.4,10.4z"/>
<path class="st1" d="M49.5,4.6c0-0.4-0.2-0.8-0.5-1.1C48.7,3.2,48.3,3,47.9,3s-0.8,0.2-1.1,0.5c-0.3,0.3-0.5,0.7-0.5,1.1L46.2,25
	c0,0.4,0.1,0.8,0.5,1.1c0.3,0.3,0.7,0.5,1.1,0.5s0.8-0.2,1.1-0.5c0.3-0.3,0.5-0.7,0.5-1.1L49.5,4.6L49.5,4.6z"/>
<path class="st1" d="M22.7,83.1c-0.4,0.2-0.8,0.2-1.2,0.1c-0.4-0.1-0.7-0.4-0.9-0.8c-0.2-0.4-0.2-0.8-0.1-1.2s0.4-0.7,0.8-0.9
	l18.4-8.8c0.4-0.2,0.8-0.2,1.2-0.1c0.4,0.1,0.7,0.4,0.9,0.8c0.2,0.4,0.2,0.8,0.1,1.2s-0.4,0.7-0.8,0.9L22.7,83.1L22.7,83.1z"/>
<path class="st1" d="M13.7,67.5c-0.4,0.1-0.8,0-1.2-0.3c-0.3-0.3-0.6-0.6-0.6-1c-0.1-0.4,0-0.8,0.3-1.2c0.3-0.3,0.6-0.6,1-0.6
	l20.2-3.1c0.4-0.1,0.8,0,1.2,0.3c0.3,0.3,0.6,0.6,0.6,1c0.1,0.4,0,0.8-0.3,1.2c-0.3,0.3-0.6,0.6-1,0.6L13.7,67.5L13.7,67.5z"/>
<path class="st1" d="M8.4,51.4c-0.4,0-0.8-0.2-1.1-0.5s-0.4-0.7-0.4-1.1s0.2-0.8,0.5-1.1c0.3-0.3,0.7-0.4,1.1-0.4l20.4,0.4
	c0.4,0,0.8,0.2,1.1,0.5c0.3,0.3,0.4,0.7,0.4,1.1s-0.2,0.8-0.5,1.1c-0.3,0.3-0.7,0.4-1.1,0.4L8.4,51.4L8.4,51.4z"/>
<path class="st1" d="M9.5,33.2c-0.4-0.1-0.8-0.3-1-0.7c-0.2-0.4-0.3-0.7-0.2-1.2c0.1-0.4,0.3-0.8,0.7-1s0.7-0.3,1.2-0.2l20,3.9
	c0.4,0.1,0.8,0.3,1,0.7c0.2,0.4,0.3,0.7,0.2,1.2c-0.1,0.4-0.3,0.8-0.7,1c-0.4,0.2-0.7,0.3-1.2,0.2L9.5,33.2L9.5,33.2z"/>
<path class="st1" d="M22.3,12.6c-0.3-0.3-0.4-0.7-0.3-1.1c0-0.4,0.2-0.8,0.6-1c0.3-0.3,0.7-0.4,1.1-0.3c0.4,0,0.8,0.2,1.1,0.6
	l12.8,15.6c0.3,0.3,0.4,0.7,0.3,1.1c0,0.4-0.2,0.8-0.6,1c-0.3,0.3-0.7,0.4-1.1,0.3c-0.4,0-0.8-0.2-1.1-0.6L22.3,12.6L22.3,12.6z"/>
<path class="st1" d="M74.3,137.8c-11,0-19.9-8.9-19.9-19.9S63.3,98,74.3,98s19.9,8.9,19.9,19.9S85.3,137.8,74.3,137.8L74.3,137.8z
	 M74.3,102c-8.8,0-15.9,7.1-15.9,15.9c0,8.8,7.1,15.9,15.9,15.9s15.9-7.1,15.9-15.9C90.2,109.1,83.1,102,74.3,102L74.3,102z
	 M74.3,129.3c-6.3,0-11.4-5.1-11.4-11.4c0-6.3,5.1-11.4,11.4-11.4s11.4,5.1,11.4,11.4C85.7,124.2,80.6,129.3,74.3,129.3L74.3,129.3z
	 M74.3,112.5c-3,0-5.4,2.4-5.4,5.4c0,1.6,0.7,3.1,1.8,4c-0.1-0.3-0.1-0.6-0.1-1c0-2.1,1.7-3.9,3.9-3.9c2.1,0,3.9,1.7,3.9,3.9
	c0,0.2,0,0.5-0.1,0.7c0.9-1,1.5-2.3,1.5-3.8C79.7,114.9,77.3,112.5,74.3,112.5L74.3,112.5z"/>
<path class="st1" d="M132.6,137.8c-11,0-19.9-8.9-19.9-19.9S121.6,98,132.6,98s19.9,8.9,19.9,19.9S143.6,137.8,132.6,137.8
	L132.6,137.8z M132.6,102c-8.8,0-15.9,7.1-15.9,15.9c0,8.8,7.1,15.9,15.9,15.9s15.9-7.1,15.9-15.9C148.5,109.1,141.4,102,132.6,102
	L132.6,102z M132.6,129.3c-6.3,0-11.4-5.1-11.4-11.4c0-6.3,5.1-11.4,11.4-11.4c6.3,0,11.4,5.1,11.4,11.4
	C144,124.2,138.9,129.3,132.6,129.3L132.6,129.3z M132.6,112.5c-3,0-5.4,2.4-5.4,5.4c0,1.6,0.7,3.1,1.8,4c-0.1-0.3-0.1-0.6-0.1-1
	c0-2.1,1.7-3.9,3.9-3.9c2.1,0,3.9,1.7,3.9,3.9c0,0.2,0,0.5-0.1,0.7c0.9-1,1.5-2.3,1.5-3.8C138,114.9,135.6,112.5,132.6,112.5
	L132.6,112.5z"/>
<polygon class="st1" points="145.5,60.4 145.5,48.9 173.7,48.9 173.7,85.1 "/>
<path class="st1" d="M104.1,189c-22.9,0-41.5-18.6-41.5-41.5h6.1c0,19.5,15.8,35.4,35.4,35.4s35.4-15.8,35.4-35.4h6.1
	C145.5,170.4,127,189,104.1,189L104.1,189z M104.1,177.4c-16.5,0-29.8-13.4-29.8-29.8h6.8c0,12.7,10.3,23,23,23s23-10.3,23-23h6.8
	C133.9,164,120.6,177.4,104.1,177.4L104.1,177.4z M104.1,145.9c-3.4,0-6.1-2.7-6.1-6.1c0-3.4,2.7-6.1,6.1-6.1c3.4,0,6.1,2.7,6.1,6.1
	C110.2,143.2,107.4,145.9,104.1,145.9L104.1,145.9z"/>
</svg>
